<svg width="18" height="18" viewBox="0 0 18 18" fill="none" xmlns="http://www.w3.org/2000/svg">
<path opacity="0.54" fill-rule="evenodd" clip-rule="evenodd" d="M12.801 11.0012H12.0247L11.7549 10.7272C12.7081 9.59019 13.2879 8.11619 13.2879 6.50119C13.2879 2.91119 10.4428 0.00118828 6.93299 0.00118828C3.42315 0.00118828 0.578125 2.91119 0.578125 6.50119C0.578125 10.0912 3.42315 13.0012 6.93299 13.0012C8.51193 13.0012 9.95204 12.4092 11.0637 11.4352L11.3335 11.7092V12.5012L16.2199 17.4922L17.6776 16.0012L12.801 11.0012ZM6.93257 11.001C4.50208 11.001 2.53305 8.98698 2.53305 6.50098C2.53305 4.01598 4.50208 2.00098 6.93257 2.00098C9.36209 2.00098 11.3321 4.01598 11.3321 6.50098C11.3321 8.98698 9.36209 11.001 6.93257 11.001Z" fill="black"/>
</svg>
